<svg xmlns="http://www.w3.org/2000/svg" data-name="Layer 1" width="888" height="475.271"><path fill="#fff" d="m249.796 6.969 2.3 1.154-6.231 12.418-2.3-1.153z"/><path d="M270.985 36.477a66 66 0 0 0-93.339 0l-.017.018a65.982 65.982 0 0 0-93.303 93.303l-.018.017 93.338 93.339 93.339-93.339a66 66 0 0 0 0-93.338Z" fill="#ff6584"/><path d="M553.43 409.452H63.75a9.988 9.988 0 0 1-1.83-.145L293.517 8.15a16.216 16.216 0 0 1 28.227 0l155.43 269.208 7.446 12.881Z" fill="#6c63ff"/><path opacity=".2" d="M553.43 409.452H386.241l82.073-119.213 5.906-8.587 2.953-4.294 7.446 12.881 68.811 119.213z"/><path d="M826.08 409H402.546l82.072-119.213 5.907-8.588 106.947-155.357c7.012-10.182 23.879-10.816 32.122-1.92a19.328 19.328 0 0 1 1.54 1.92Z" fill="#3f3d56"/><path fill="#3f3d56" d="M0 407.933h888v2.241H0z"/><ellipse cx="570.057" cy="586.267" rx="32.342" ry="10.153" transform="rotate(-21.176 -75.973 897.352)" fill="#2f2e41"/><circle cx="349.27" cy="382.748" r="64.684" fill="#2f2e41"/><path fill="#2f2e41" d="M319.794 433.513h19.651v35.208h-19.651zM359.095 433.513h19.651v35.208h-19.651z"/><ellipse cx="336.169" cy="469.13" rx="16.376" ry="6.141" fill="#2f2e41"/><ellipse cx="375.471" cy="468.311" rx="16.376" ry="6.141" fill="#2f2e41"/><circle cx="350.907" cy="366.373" r="22.107" fill="#fff"/><circle cx="350.907" cy="366.373" r="7.369" fill="#3f3d56"/><path d="M286.524 322.594c-5.223-23.39 11.473-47.026 37.29-52.79s50.983 8.523 56.205 31.913-11.887 32.018-37.705 37.783-50.567 6.485-55.79-16.906Z" fill="#e6e6e6"/><ellipse cx="440.414" cy="603.099" rx="32.342" ry="10.153" transform="rotate(-45 106.067 685.226)" fill="#2f2e41"/><path d="M317.497 406.084c0 6.33 16.301 18.832 34.39 18.832s35.047-17.824 35.047-24.155-16.96 1.229-35.048 1.229-34.389-2.237-34.389 4.094Z" fill="#fff"/><ellipse cx="623.943" cy="586.267" rx="10.153" ry="32.342" transform="rotate(-68.824 390.936 593.95)" fill="#2f2e41"/><circle cx="532.73" cy="382.748" r="64.684" fill="#2f2e41"/><path fill="#2f2e41" d="M562.206 468.72h-19.651v-35.207h19.651zM522.905 468.72h-19.651v-35.207h19.65z"/><ellipse cx="545.831" cy="469.13" rx="16.376" ry="6.141" fill="#2f2e41"/><ellipse cx="506.529" cy="468.311" rx="16.376" ry="6.141" fill="#2f2e41"/><circle cx="531.093" cy="366.373" r="22.107" fill="#fff"/><circle cx="531.093" cy="366.373" r="7.369" fill="#3f3d56"/><path d="M595.476 322.594c5.223-23.39-11.473-47.026-37.29-52.79s-50.983 8.523-56.205 31.913 11.887 32.018 37.705 37.783 50.567 6.485 55.79-16.906Z" fill="#6c63ff"/><ellipse cx="753.586" cy="603.099" rx="10.153" ry="32.342" transform="rotate(-45 419.239 685.226)" fill="#2f2e41"/><path d="M564.503 406.084c0 6.33-16.301 18.832-34.39 18.832s-35.047-17.824-35.047-24.155 16.96 1.229 35.048 1.229 34.389-2.237 34.389 4.094Z" fill="#fff"/><path d="M888 314.863c0 41.8-24.85 56.396-55.504 56.396s-55.505-14.595-55.505-56.396 55.505-94.98 55.505-94.98S888 273.062 888 314.864Z" fill="#e6e6e6"/><path fill="#3f3d56" d="m830.474 364.865.568-34.984 23.657-43.28-23.568 37.792.256-15.73 16.304-31.313-16.237 27.15.46-28.291 17.459-24.929-17.387 20.48.287-51.876-1.804 68.675.148-2.833-17.751-27.171 17.466 32.609-1.654 31.597-.049-.839-20.463-28.593 20.401 31.556-.207 3.951-.037.06.017.324-4.196 80.163h5.607l.672-41.406 20.352-31.478-20.301 28.366z"/></svg>